<svg width="34" height="34" viewBox="0 0 34 34" fill="none" xmlns="http://www.w3.org/2000/svg">
<g id="rocket 1" clip-path="url(#clip0_155_246)">
<path id="Vector" d="M16.2394 16.2505L7.74219 24.7477L9.24479 26.2503L17.742 17.7531L16.2394 16.2505Z" fill="white"/>
<path id="Vector_2" d="M18.0644 31.8749C17.9298 31.8753 17.7964 31.85 17.6713 31.8006C17.4972 31.7312 17.3446 31.617 17.2289 31.4696C17.1132 31.3222 17.0385 31.1468 17.0125 30.9612L15.95 23.5237L18.075 23.2262L18.8719 28.8256L22.3144 26.0524V18.0624C22.3136 17.9226 22.3404 17.784 22.3933 17.6545C22.4461 17.5251 22.524 17.4073 22.6225 17.3081L26.9469 12.9837C27.8379 12.0987 28.5446 11.0458 29.0261 9.88585C29.5076 8.72594 29.7543 7.48206 29.7519 6.22619V4.24994H27.7756C26.5198 4.24756 25.2759 4.49424 24.116 4.97571C22.9561 5.45718 21.9031 6.16389 21.0181 7.05494L16.6938 11.3793C16.5945 11.4778 16.4767 11.5557 16.3473 11.6086C16.2178 11.6615 16.0792 11.6883 15.9394 11.6874H7.94938L5.17626 15.1512L10.7756 15.9481L10.4781 18.0731L3.04063 17.0106C2.85506 16.9845 2.67967 16.9099 2.53226 16.7942C2.38485 16.6785 2.27065 16.5259 2.20126 16.3518C2.13101 16.1765 2.10874 15.9857 2.13676 15.7989C2.16477 15.6122 2.24205 15.4363 2.36063 15.2893L6.61063 9.97682C6.70851 9.84965 6.83393 9.7463 6.97746 9.67453C7.12099 9.60277 7.27892 9.56444 7.43938 9.56244H15.5038L19.5094 5.54619C20.5923 4.45724 21.8805 3.5941 23.2995 3.00681C24.7185 2.41952 26.2399 2.11977 27.7756 2.12494H29.7519C30.3155 2.12494 30.856 2.34883 31.2545 2.74734C31.653 3.14586 31.8769 3.68636 31.8769 4.24994V6.22619C31.8821 7.7619 31.5823 9.28335 30.995 10.7023C30.4077 12.1213 29.5446 13.4096 28.4556 14.4924L24.4394 18.4981V26.5624C24.4386 26.722 24.402 26.8794 24.3321 27.0229C24.2622 27.1664 24.1609 27.2922 24.0356 27.3912L18.7231 31.6412C18.5362 31.7912 18.304 31.8736 18.0644 31.8749Z" fill="white"/>
</g>
<defs>
<clipPath id="clip0_155_246">
<rect width="34" height="34" fill="white"/>
</clipPath>
</defs>
</svg>
